# xmcd
#
# Track frame offsets:
#	150
#	16009
#	30109
#	45837
#	61740
#	75796
#	89951
#	105982
#	123352
#	136107
#	150060
#	169457
#	182856
#	203111
#	218481
#	235663
#	251806
#	267969
#	287130
#
# Disc length: 3969 seconds
#
# Revision: 1
# Processed by: cddbd v1.5.2PL0 Copyright (c) Steve Scherf et al.
# Submitted via: audiograbber 1.83.01
#
DISCID=e50f7f13
DTITLE=Various Artist - Hott Country 173
DYEAR=2010
DGENRE=Country
TTITLE0=George Strait - The Breath You Take
TTITLE1=George Canyon - Pretty Drunk Out Tonight
TTITLE2=Dieerks Bentley - Up On The Ridge
TTITLE3=Train  - Hey Soul Sister ( Country Mix)
TTITLE4=Miranda Lambert - Only Prettier
TTITLE5=Dean Brody - Roll That Barrel Out
TTITLE6=Reba McEntire - Turn On The Radio
TTITLE7=Darius Rucker - Come Back Song
TTITLE8=Randy Houser - I'm All About It
TTITLE9=Frankie Ballard - Tell Me You Get Lonely
TTITLE10=Kenny Chesney - The Boys Of Fall ( Single Edit )
TTITLE11=Kevin Fowler - Pound Sign
TTITLE12=Ray Lamontagne and The Pariah Dog - Beg Steal Or Borrow
TTITLE13=Chris Cummings - Heart Like A Stone
TTITLE14=Danny Gokey - i Will Not Say Goodbye
TTITLE15=Victoria Banks - City Of Dreams
TTITLE16=Helix - Best Mistake i Never Made
TTITLE17=Sara Evans - A Little Bit Stronger
TTITLE18=Ronnie Milsap - Daydreams About Night Things ( 1976 )
EXTD=July 2010
EXTT0=
EXTT1=
EXTT2=
EXTT3=
EXTT4=
EXTT5=
EXTT6=
EXTT7=
EXTT8=
EXTT9=
EXTT10=
EXTT11=
EXTT12=
EXTT13=
EXTT14=
EXTT15=
EXTT16=
EXTT17=
EXTT18=
PLAYORDER=
